<svg width="347" height="431" viewBox="0 0 347 431" fill="none" xmlns="http://www.w3.org/2000/svg">
<rect x="137" y="370.011" width="64" height="32" rx="5" fill="white"/>
<path d="M152.135 395.231C150.97 395.231 149.935 395.035 149.03 394.643C148.131 394.251 147.425 393.715 146.913 393.035C146.406 392.351 146.155 391.574 146.16 390.707C146.155 390.032 146.302 389.413 146.6 388.848C146.898 388.284 147.3 387.813 147.807 387.437C148.319 387.055 148.889 386.812 149.516 386.708V386.598C148.69 386.415 148.021 385.994 147.509 385.336C147.002 384.672 146.751 383.906 146.756 383.038C146.751 382.212 146.981 381.475 147.446 380.827C147.912 380.179 148.549 379.669 149.36 379.298C150.17 378.922 151.095 378.734 152.135 378.734C153.165 378.734 154.082 378.922 154.887 379.298C155.698 379.669 156.335 380.179 156.801 380.827C157.271 381.475 157.506 382.212 157.506 383.038C157.506 383.906 157.247 384.672 156.73 385.336C156.218 385.994 155.556 386.415 154.746 386.598V386.708C155.374 386.812 155.938 387.055 156.44 387.437C156.947 387.813 157.349 388.284 157.647 388.848C157.951 389.413 158.102 390.032 158.102 390.707C158.102 391.574 157.846 392.351 157.334 393.035C156.821 393.715 156.116 394.251 155.217 394.643C154.323 395.035 153.296 395.231 152.135 395.231ZM152.135 392.988C152.736 392.988 153.259 392.886 153.703 392.682C154.148 392.473 154.493 392.181 154.738 391.804C154.984 391.428 155.11 390.994 155.115 390.503C155.11 389.99 154.976 389.538 154.715 389.146C154.459 388.749 154.106 388.438 153.656 388.213C153.212 387.988 152.705 387.876 152.135 387.876C151.56 387.876 151.048 387.988 150.598 388.213C150.149 388.438 149.793 388.749 149.532 389.146C149.276 389.538 149.15 389.99 149.156 390.503C149.15 390.994 149.271 391.428 149.516 391.804C149.762 392.175 150.107 392.466 150.551 392.675C151.001 392.884 151.529 392.988 152.135 392.988ZM152.135 385.673C152.627 385.673 153.06 385.573 153.437 385.375C153.818 385.176 154.119 384.899 154.339 384.544C154.558 384.188 154.67 383.778 154.676 383.313C154.67 382.853 154.561 382.45 154.346 382.105C154.132 381.755 153.834 381.486 153.452 381.297C153.071 381.104 152.632 381.007 152.135 381.007C151.628 381.007 151.181 381.104 150.794 381.297C150.413 381.486 150.115 381.755 149.901 382.105C149.691 382.45 149.59 382.853 149.595 383.313C149.59 383.778 149.694 384.188 149.908 384.544C150.128 384.894 150.429 385.171 150.81 385.375C151.197 385.573 151.639 385.673 152.135 385.673ZM166.388 395.231C165.222 395.231 164.187 395.035 163.283 394.643C162.384 394.251 161.678 393.715 161.166 393.035C160.659 392.351 160.408 391.574 160.413 390.707C160.408 390.032 160.554 389.413 160.852 388.848C161.15 388.284 161.553 387.813 162.06 387.437C162.572 387.055 163.142 386.812 163.769 386.708V386.598C162.943 386.415 162.274 385.994 161.762 385.336C161.255 384.672 161.004 383.906 161.009 383.038C161.004 382.212 161.234 381.475 161.699 380.827C162.164 380.179 162.802 379.669 163.612 379.298C164.423 378.922 165.348 378.734 166.388 378.734C167.418 378.734 168.335 378.922 169.14 379.298C169.95 379.669 170.588 380.179 171.053 380.827C171.524 381.475 171.759 382.212 171.759 383.038C171.759 383.906 171.5 384.672 170.983 385.336C170.471 385.994 169.809 386.415 168.999 386.598V386.708C169.626 386.812 170.191 387.055 170.693 387.437C171.2 387.813 171.602 388.284 171.9 388.848C172.203 389.413 172.355 390.032 172.355 390.707C172.355 391.574 172.099 392.351 171.587 393.035C171.074 393.715 170.369 394.251 169.47 394.643C168.576 395.035 167.548 395.231 166.388 395.231ZM166.388 392.988C166.989 392.988 167.512 392.886 167.956 392.682C168.401 392.473 168.746 392.181 168.991 391.804C169.237 391.428 169.362 390.994 169.368 390.503C169.362 389.99 169.229 389.538 168.968 389.146C168.712 388.749 168.359 388.438 167.909 388.213C167.465 387.988 166.958 387.876 166.388 387.876C165.813 387.876 165.301 387.988 164.851 388.213C164.402 388.438 164.046 388.749 163.785 389.146C163.529 389.538 163.403 389.99 163.408 390.503C163.403 390.994 163.523 391.428 163.769 391.804C164.015 392.175 164.36 392.466 164.804 392.675C165.254 392.884 165.782 392.988 166.388 392.988ZM166.388 385.673C166.879 385.673 167.313 385.573 167.69 385.375C168.071 385.176 168.372 384.899 168.591 384.544C168.811 384.188 168.923 383.778 168.928 383.313C168.923 382.853 168.813 382.45 168.599 382.105C168.385 381.755 168.087 381.486 167.705 381.297C167.324 381.104 166.885 381.007 166.388 381.007C165.881 381.007 165.434 381.104 165.047 381.297C164.666 381.486 164.368 381.755 164.153 382.105C163.944 382.45 163.842 382.853 163.848 383.313C163.842 383.778 163.947 384.188 164.161 384.544C164.381 384.894 164.681 385.171 165.063 385.375C165.45 385.573 165.891 385.673 166.388 385.673ZM176.238 395.184C175.763 395.184 175.355 395.016 175.015 394.682C174.675 394.347 174.508 393.94 174.513 393.459C174.508 392.988 174.675 392.586 175.015 392.251C175.355 391.917 175.763 391.749 176.238 391.749C176.698 391.749 177.098 391.917 177.438 392.251C177.783 392.586 177.958 392.988 177.963 393.459C177.958 393.778 177.874 394.068 177.712 394.329C177.555 394.59 177.346 394.8 177.085 394.956C176.829 395.108 176.547 395.184 176.238 395.184ZM186.251 395.231C185.206 395.231 184.27 395.035 183.444 394.643C182.618 394.245 181.962 393.702 181.476 393.012C180.995 392.322 180.739 391.532 180.707 390.644H183.53C183.582 391.302 183.867 391.841 184.385 392.259C184.902 392.672 185.524 392.879 186.251 392.879C186.821 392.879 187.328 392.748 187.772 392.486C188.216 392.225 188.567 391.862 188.823 391.397C189.079 390.931 189.204 390.401 189.199 389.805C189.204 389.199 189.076 388.66 188.815 388.19C188.554 387.719 188.196 387.351 187.741 387.084C187.286 386.812 186.763 386.676 186.173 386.676C185.692 386.671 185.219 386.76 184.753 386.943C184.288 387.126 183.92 387.366 183.648 387.664L181.021 387.233L181.86 378.953H191.175V381.384H184.267L183.805 385.641H183.899C184.197 385.291 184.617 385.001 185.161 384.771C185.705 384.536 186.301 384.418 186.949 384.418C187.921 384.418 188.789 384.648 189.552 385.108C190.315 385.563 190.916 386.19 191.355 386.99C191.795 387.79 192.014 388.705 192.014 389.734C192.014 390.795 191.768 391.742 191.277 392.573C190.791 393.399 190.114 394.049 189.246 394.525C188.384 394.996 187.385 395.231 186.251 395.231Z" fill="#B52F7E"/>
<line x1="25" y1="340.022" x2="25" y2="24.9999" stroke="#293C8B" stroke-width="50" stroke-linecap="round"/>
<line x1="322" y1="405.033" x2="322" y2="90.0112" stroke="#293C8B" stroke-width="50" stroke-linecap="round"/>
<line x1="169" y1="340.011" x2="169" y2="183.011" stroke="#293C8B" stroke-width="50" stroke-linecap="round"/>
<line x1="96" y1="300.011" x2="96" y2="143.011" stroke="#293C8B" stroke-width="50" stroke-linecap="round"/>
<line x1="238" y1="281.011" x2="238" y2="124.011" stroke="#293C8B" stroke-width="50" stroke-linecap="round"/>
<circle cx="168.5" cy="134.511" r="18.5" fill="#B52F7E"/>
<circle cx="168.5" cy="134.511" r="18.5" fill="#B52F7E"/>
<circle cx="108" cy="347.011" r="15" fill="#B52F7E"/>
<circle cx="108" cy="347.011" r="15" fill="#B52F7E"/>
<circle cx="108" cy="380.011" r="15" fill="#B52F7E"/>
<circle cx="108" cy="380.011" r="15" fill="#B52F7E"/>
<circle cx="250" cy="330.011" r="15" fill="#B52F7E"/>
<circle cx="250" cy="330.011" r="15" fill="#B52F7E"/>
<circle cx="250" cy="365.011" r="15" fill="#B52F7E"/>
<circle cx="250" cy="365.011" r="15" fill="#B52F7E"/>
</svg>
