<svg width="600" height="384" viewBox="0 0 600 384" fill="none" xmlns="http://www.w3.org/2000/svg">
<path d="M533.379 381.539H470.621V338.059H533.379V381.539ZM460.352 372.699C455.531 373.52 455.449 373.449 455.438 368.82C455.438 364.301 455.437 359.781 454.84 355.102C454.531 355.961 454.172 356.801 453.938 357.672C452.762 361.949 451.48 366.211 450.531 370.539C450.031 372.84 448.77 373.102 446.801 373.09C444.781 373.07 443.41 372.891 442.852 370.449C441.66 365.27 440.121 360.172 438.719 355.031C438.461 355.051 438.187 355.059 437.93 355.078V368.789C437.93 373.461 437.898 373.481 433.051 372.731V346.809C435.398 346.809 437.871 346.719 440.312 346.899C440.789 346.93 441.41 347.981 441.602 348.672C443.129 354.192 444.57 359.738 446.039 365.281C446.148 365.692 446.328 366.078 447.02 366.512C448.789 359.981 450.551 353.449 452.32 346.91H460.352V372.699ZM429.16 351.531H417.551V357.27H428.09V362.078H417.312V369.012C417.301 373.41 417.281 373.43 412.461 372.762V346.961H429.16V351.531ZM403.41 383.328H535.309V336.199H403.41V383.328Z" fill="white"/>
<path d="M122.578 306.234C127.535 288.152 132.332 270.602 137.156 253.059C157.785 178.039 178.426 103.024 199.059 28.0079C201.352 19.6798 203.703 11.3712 205.891 3.01963C206.438 0.933689 207.402 0.238376 209.547 0.238376C241.406 0.20322 273.266 0.0860332 305.121 9.51609e-05C305.922 -0.00381084 306.723 0.113376 307.809 0.195408C307.551 1.35556 307.387 2.24228 307.145 3.10947C279.559 103.266 251.961 203.418 224.422 303.586C223.824 305.766 222.926 306.547 220.621 306.543C188.949 306.473 157.277 306.504 125.605 306.492C124.723 306.492 123.836 306.348 122.578 306.234Z" fill="white"/>
<path d="M184.652 2.15635C184.348 3.40244 184.137 4.37119 183.875 5.32431C160.129 91.7306 136.379 178.137 112.637 264.543C108.895 278.156 105.121 291.758 101.492 305.395C100.922 307.535 99.9414 308.113 97.832 308.109C66.2461 308.07 34.6641 308.113 3.07812 308.125C2.17969 308.125 1.28125 308.031 0 307.961C1.0625 304.02 2.02344 300.383 3.01953 296.758C16.2695 248.449 29.5273 200.141 42.7812 151.832C56.1875 102.977 69.6055 54.1251 82.9375 5.254C83.5625 2.96103 84.4531 2.15244 86.8867 2.15244C118.566 2.14853 150.246 2.03525 181.922 1.96103C182.723 1.95713 183.527 2.07431 184.652 2.15635Z" fill="white"/>
<path d="M420.336 0.710938C420.027 2.02734 419.836 3.00781 419.57 3.96484C395.715 90.1211 371.844 176.27 348 262.43C344.164 276.297 340.391 290.18 336.727 304.094C336.102 306.461 335.195 307.363 332.617 307.355C303.73 307.258 274.84 307.293 245.949 307.285C245.047 307.285 244.145 307.203 242.906 307.141C243.18 305.984 243.355 305.105 243.594 304.242C271.164 204.172 298.746 104.105 326.285 4.02734C326.863 1.92187 327.508 0.746094 330.113 0.746094C359.375 0.769531 388.637 0.644531 417.898 0.566406C418.535 0.566406 419.172 0.640625 420.336 0.710938Z" fill="white"/>
<path d="M558.012 148.121C544.711 175.309 524.199 196.109 499.441 212.879C489.48 219.629 478.852 225.398 468.5 231.621C471.738 234.141 475.488 236.809 478.969 239.789C496.551 254.859 507.762 273.512 510.641 296.719C510.66 296.848 510.672 296.988 510.691 297.121C510.719 297.398 510.77 297.66 510.812 297.898L512.441 308.859C491.211 308.91 469.988 308.891 448.762 309.012C445.891 309.02 444.711 308.422 443.98 305.34C439.988 288.41 429.152 276.789 414.32 268.539C402.871 262.16 390.48 258.781 377.48 257.488C376.199 257.359 374.922 257.211 373.312 257.039C373.52 255.981 373.629 255.098 373.871 254.25C378.16 239.09 382.562 223.961 386.68 208.762C387.48 205.789 388.891 204.879 391.73 204.629C416.48 202.5 439.211 194.398 459.828 180.621C476.488 169.481 490.23 155.59 498.121 136.762C505.25 119.738 505.75 102.781 496.391 86.3594C488.73 72.9415 476.75 64.5587 462.699 58.879C453.859 55.3087 444.629 53.2813 435.141 52.3907C434.211 52.3008 433.289 52.1602 432.379 52.0001C432.129 51.961 431.902 51.7696 431.449 51.5391C431.629 50.7618 431.789 49.9688 432.012 49.1915C436.152 34.4688 440.301 19.7618 444.469 5.03913C444.84 3.73053 445.02 2.42194 447.078 2.53131C475.871 4.12897 503.109 10.8907 527.301 27.211C548.672 41.629 563.199 60.9883 567.902 86.7696C571.84 108.309 567.5 128.699 558.012 148.121Z" fill="white"/>
<path d="M479.844 359.637C480.254 359.52 480.664 359.398 481.078 359.281C480.852 358.004 480.621 356.727 480.391 355.449C479.723 355.695 479.051 355.941 478.379 356.191C478.867 357.34 479.355 358.488 479.844 359.637ZM482.793 369.754C480.926 369.086 479.461 368.559 477.695 367.93C478.129 366.43 478.531 365.051 478.781 364.184C477.336 363.496 475.699 363.145 474.715 362.148C473.621 361.039 472.676 359.402 472.465 357.887C472.059 354.93 473.344 352.449 475.969 350.852C478.453 349.336 481.738 349.594 484.07 351.367C486.555 353.258 487.543 355.797 486.68 358.731C485.609 362.348 484.184 365.863 482.793 369.754Z" fill="white"/>
<path d="M495.441 359.602C495.863 359.477 496.289 359.348 496.715 359.219C496.469 357.957 496.223 356.699 495.977 355.438C495.313 355.691 494.645 355.945 493.98 356.199C494.465 357.336 494.953 358.469 495.441 359.602ZM498.414 369.754C496.574 369.086 495.043 368.527 493.273 367.883C493.754 366.32 494.176 364.949 494.555 363.719C493.699 363.656 492.855 363.805 492.207 363.516C488.586 361.922 487.113 358.246 488.484 354.484C489.746 351.031 493.719 349.082 497.359 350.137C500.879 351.156 503.316 354.777 502.359 358.32C501.336 362.129 499.801 365.805 498.414 369.754Z" fill="white"/>
<path d="M516.883 364.504C518.434 364.078 520.012 363.727 521.504 363.148C521.703 363.066 521.715 361.426 521.383 361.231C519.996 360.41 518.445 359.867 516.516 359.035C516.926 357.051 517.414 354.359 518.082 351.715C518.211 351.215 519.039 350.566 519.57 350.539C522.039 350.414 524.52 350.484 527.168 350.484V355.645H523.004C522.949 355.805 522.898 355.961 522.848 356.117C523.398 356.477 523.945 356.84 524.508 357.188C527.602 359.094 528.723 363.047 527.039 366.133C525.301 369.316 520.609 370.965 517.684 368.93C516.555 368.145 516.41 365.941 515.816 364.383C516.172 364.422 516.527 364.465 516.883 364.504Z" fill="white"/>
<path d="M508.684 362.168C510.816 362.223 511.945 363.422 512.187 365.41C512.422 367.375 510.855 369.02 508.867 369.07C506.879 369.129 505.203 367.57 505.363 365.598C505.52 363.633 506.562 362.328 508.684 362.168Z" fill="white"/>
<path d="M42.1758 371.738H37.5117C37.5117 367.652 37.5117 363.606 37.5117 359.563C37.5117 358.449 37.7813 357.234 37.4258 356.25C37.0938 355.34 36.0899 354.672 35.3828 353.895C34.6602 354.684 33.3594 355.445 33.3125 356.274C33.0899 360.25 33.2071 364.246 33.2031 368.238C33.2031 369.328 33.2031 370.426 33.2031 371.692H28.5313C28.5313 368.379 28.5313 365.07 28.5313 361.766C28.5313 360.004 28.7852 358.184 28.4258 356.5C28.2149 355.52 27.1289 354.195 26.2344 354.008C24.5391 353.652 24.2149 355.129 24.2227 356.57C24.2383 360.559 24.2266 364.551 24.2266 368.539V371.692H19.5039C19.5039 365.84 19.1367 360.09 19.6211 354.41C19.9883 350.086 24.9375 347.754 28.9922 349.578C30.4102 350.215 31.3946 350.156 32.7813 349.543C36.7266 347.793 41.6602 350.016 42.043 354.211C42.5703 359.969 42.1758 365.809 42.1758 371.738Z" fill="white"/>
<path d="M148.434 362.426V349.551H153.211V371.442C148.84 372.473 148.52 372.332 146.434 368.82C144.371 365.348 142.281 361.891 139.734 358.555V371.652H135.047V349.785C139.328 348.711 139.746 348.883 141.922 352.547C143.906 355.883 145.91 359.215 147.902 362.547C148.078 362.508 148.258 362.465 148.434 362.426Z" fill="white"/>
<path d="M59.9024 362.559H68.5704C68.6289 359.57 69.4649 356.387 66.3047 354.77C65.086 354.145 62.9024 354.227 61.7227 354.93C58.7891 356.672 59.9024 359.734 59.9024 362.559ZM73.3399 371.758H68.8516C68.7305 370.336 68.6172 369.004 68.4961 367.547H60.0196C59.8399 368.969 59.6758 370.297 59.5 371.738H55.2891C55.2891 366.379 54.7657 361.004 55.4493 355.785C56.0391 351.266 60.8789 348.762 65.711 349.406C69.9688 349.981 73.2969 353.817 73.3282 358.285C73.3633 362.781 73.3399 367.27 73.3399 371.758Z" fill="white"/>
<path d="M180.023 362.594C180.141 359.637 180.953 356.477 177.871 354.824C176.621 354.156 174.277 354.27 173.074 355.035C170.238 356.836 171.336 359.848 171.461 362.594H180.023ZM170.984 371.719H166.023C166.324 366.215 166.113 360.656 167.07 355.309C167.848 350.961 172.801 348.656 177.418 349.43C181.57 350.121 184.77 353.898 184.809 358.238C184.848 362.66 184.816 367.086 184.816 371.688H180.312C180.211 370.367 180.113 369.035 180.004 367.566H171.504C171.336 368.934 171.168 370.262 170.984 371.719Z" fill="white"/>
<path d="M91.3359 354.168V367C96.5391 367.5 100.004 364.914 100.027 360.652C100.055 356.367 96.7461 353.824 91.3359 354.168ZM86.4805 371.77V349.18C90.0742 349.414 93.6484 349.176 96.9727 349.973C102.164 351.219 105.355 356.363 104.895 361.609C104.453 366.606 100.344 371.117 95.2734 371.711C92.4609 372.035 89.5742 371.77 86.4805 371.77Z" fill="white"/>
<path d="M201.207 354.082H194.547V349.531H212.668V354.02H206.055V371.649H201.207" fill="white"/>
<path d="M117.273 371.692H121.691V349.539H117.273V371.692Z" fill="white"/>
<path d="M224.238 371.645H228.668V349.488H224.238V371.645Z" fill="white"/>
<path d="M380.871 367.606C384.793 367.543 387.98 364.328 387.902 360.512C387.824 356.641 384.652 353.77 380.547 353.852C376.617 353.926 373.707 356.848 373.719 360.699C373.727 364.59 376.91 367.664 380.871 367.606ZM380.813 372.363C374.258 372.371 368.723 366.996 368.762 360.652C368.801 354.281 374.34 348.961 380.891 349C387.367 349.039 392.676 354.234 392.723 360.586C392.77 367.059 387.418 372.356 380.813 372.363Z" fill="white"/>
<path d="M303.812 362.594C303.836 359.527 304.695 356.285 301.469 354.75C300.184 354.137 297.871 354.332 296.684 355.133C294.039 356.914 295.105 359.859 295.164 362.594H303.812ZM308.559 371.773H304.059C303.953 370.375 303.855 369.043 303.75 367.566H295.25C295.078 368.926 294.914 370.254 294.73 371.695H290.223C290.223 366.648 289.832 361.731 290.332 356.906C290.855 351.852 295.363 348.902 300.602 349.383C305.086 349.797 308.527 353.719 308.555 358.508C308.578 362.84 308.559 367.176 308.559 371.773Z" fill="white"/>
<path d="M265.203 362.695C268.387 362.613 271.754 363.645 273.332 360.234C273.895 359.016 273.617 356.777 272.809 355.692C270.859 353.094 267.891 354.145 265.203 354.137V362.695ZM264.973 371.723H260.449V349.551C264.262 349.551 268.113 349.02 271.766 349.664C278.266 350.813 281.133 358.793 276.773 363.758C274.773 366.039 275.027 367.61 276.195 369.762C276.488 370.297 276.578 370.942 276.789 371.633C273.949 372.129 271.645 372.317 270.555 368.887C269.648 366.035 267.152 367.879 265.195 367.438C265.117 368.949 265.051 370.219 264.973 371.723Z" fill="white"/>
<path d="M326.535 367.059C329.738 367.488 332.387 366.797 334.184 364.117C335.723 361.82 335.699 359.34 334.188 357.063C332.406 354.379 329.754 353.664 326.535 354.203V367.059ZM321.684 371.797V349.52C327.551 349.313 333.512 348.199 337.773 353.75C343.066 360.641 338.906 370.735 330.281 371.746C327.555 372.07 324.758 371.797 321.684 371.797Z" fill="white"/>
<path d="M352.441 371.645H356.871V349.488H352.441V371.645Z" fill="white"/>
<path d="M599.562 306.449C599.496 308.199 598.625 309.41 596.594 309.391C593.062 309.34 589.535 309.309 586.004 309.348C582.813 309.391 583.156 306.441 581.715 304.262C581.062 307.328 580.516 309.988 579.926 312.648C579.734 313.551 579.656 314.57 579.164 315.289C578.656 316.051 577.746 316.879 576.934 316.949C576.375 317 575.406 315.949 575.133 315.199C574.562 313.641 574.312 311.969 573.977 310.328C572.805 304.629 571.645 298.922 569.906 293.191C569.273 297.809 568.633 302.422 568.023 307.039C566.695 317.16 565.383 327.281 564.047 337.398C563.965 338.039 563.926 338.82 563.547 339.25C562.797 340.109 561.695 341.488 560.984 341.348C560.023 341.172 558.797 339.891 558.535 338.871C557.203 333.469 556.145 328 554.977 322.551C554.477 320.231 553.945 317.922 553.023 315.672C552.656 317.949 552.562 320.34 551.805 322.481C551.297 323.93 550.063 325.738 548.754 326.148C546.836 326.77 546.063 324.75 545.504 323.109C542.977 315.66 540.434 308.211 537.285 300.68C536.105 304.289 534.934 307.898 533.746 311.512C533.105 313.449 532.563 315.43 531.754 317.301C530.297 320.68 527.297 321.012 525.117 318.039C523.477 315.801 521.895 313.488 520.477 311.098C519.453 309.371 518.176 308.82 516.184 308.828C513.984 308.84 511.773 308.84 509.574 308.848V300.051C512.445 300.148 515.313 300.43 518.176 300.348C521.676 300.25 524.062 301.539 525.555 304.68C525.934 305.481 526.547 306.18 527.383 307.41C529.375 301.531 531.203 296.129 533.035 290.731C533.355 289.77 533.434 288.609 534.023 287.859C534.926 286.711 536.164 285.07 537.266 285.07C538.406 285.07 540.074 286.559 540.574 287.781C542.145 291.641 543.285 295.672 544.594 299.641C545.535 302.52 546.484 305.398 547.434 308.281C547.594 308.27 547.754 308.25 547.914 308.238C548.414 305.148 548.906 302.07 549.406 298.981C549.465 298.609 549.465 298.231 549.535 297.871C549.926 296.02 550.297 293.93 552.695 293.93C554.875 293.93 555.445 295.82 555.824 297.621C556.547 301.07 557.246 304.52 557.953 307.981C558.754 311.879 559.555 315.781 560.867 319.738C561.285 316.84 561.734 313.941 562.117 311.031C563.645 299.441 565.164 287.84 566.684 276.238C566.926 274.398 566.875 272.012 569.266 271.949C571.715 271.898 571.984 274.348 572.367 276.25C573.945 284.25 575.484 292.25 577.535 300.309C577.934 298.481 578.145 296.578 578.785 294.84C579.285 293.481 580.305 292.309 581.094 291.059C582.016 292.191 583.203 293.191 583.797 294.481C584.703 296.488 585.305 298.672 585.855 300.82C586.285 302.5 587.055 303.262 588.914 303.211C591.504 303.121 594.105 303.398 596.703 303.461C598.695 303.512 599.656 304.598 599.562 306.449Z" fill="white"/>
</svg>
