<svg width="100" height="100" viewBox="0 0 100 100" fill="none" xmlns="http://www.w3.org/2000/svg">
<path d="M37 28V75L73 51.5L37 28Z" fill="#FFFBFB"/>
<path d="M50 99.5C22.6619 99.5 0.5 77.3381 0.5 50C0.5 22.6619 22.6619 0.5 50 0.5C77.3381 0.5 99.5 22.6619 99.5 50C99.5 77.3381 77.3381 99.5 50 99.5Z" stroke="#23BCDF"/>
<path d="M50 8.33334C27 8.33334 8.33333 27 8.33333 50C8.33333 73 27 91.6667 50 91.6667C73 91.6667 91.6667 73 91.6667 50C91.6667 27 73 8.33334 50 8.33334ZM41.6667 68.75V31.25L66.6667 50L41.6667 68.75Z" fill="black"/>
</svg>
